<?xml version="1.0" encoding="UTF-8"?>
<svg id="svg1" xmlns="http://www.w3.org/2000/svg" xmlns:xlink="http://www.w3.org/1999/xlink" xmlns:svg="http://www.w3.org/2000/svg" xmlns:sodipodi="http://sodipodi.sourceforge.net/DTD/sodipodi-0.dtd" xmlns:inkscape="http://www.inkscape.org/namespaces/inkscape" version="1.1" viewBox="0 0 58.2 37.8">
  <!-- Generator: Adobe Illustrator 29.1.0, SVG Export Plug-In . SVG Version: 2.1.0 Build 142)  -->
  <defs>
    <style>
      .st0 {
        fill: #fff;
        stroke-linecap: round;
        stroke-width: 3px;
      }

      .st0, .st1, .st2, .st3, .st4, .st5 {
        stroke: #fff;
        stroke-linejoin: round;
      }

      .st1 {
        fill: #8ed8f5;
      }

      .st1, .st2, .st3, .st4, .st5 {
        stroke-width: 1.5px;
      }

      .st2 {
        fill: #fad449;
      }

      .st3 {
        fill: url(#linear-gradient2);
      }

      .st4 {
        fill: url(#linear-gradient1);
      }

      .st5 {
        fill: url(#linear-gradient);
      }
    </style>
    <linearGradient id="linear-gradient" x1="41.6" y1="10.7" x2="41.6" y2="-6.7" gradientTransform="translate(0 29.5) scale(1 -1)" gradientUnits="userSpaceOnUse">
      <stop offset="0" stop-color="#8fd92d"/>
      <stop offset="1" stop-color="#7c8f47"/>
    </linearGradient>
    <linearGradient id="linear-gradient1" x1="21.6" y1="28" x2="21.6" y2="-6.7" gradientTransform="translate(0 29.5) scale(1 -1)" gradientUnits="userSpaceOnUse">
      <stop offset="0" stop-color="#fcb200"/>
      <stop offset="1" stop-color="#e43300"/>
    </linearGradient>
    <linearGradient id="linear-gradient2" x1="51.7" y1="28" x2="51.7" y2="19.3" gradientTransform="translate(0 29.5) scale(1 -1)" gradientUnits="userSpaceOnUse">
      <stop offset="0" stop-color="#2575ec"/>
      <stop offset="1" stop-color="#31b5f3"/>
    </linearGradient>
  </defs>
  <sodipodi:namedview id="namedview1" bordercolor="#000000" borderopacity="0.25" inkscape:current-layer="svg1" inkscape:cx="-7.9135467" inkscape:cy="64.691324" inkscape:deskcolor="#d1d1d1" inkscape:pagecheckerboard="0" inkscape:pageopacity="0.0" inkscape:showpageshadow="2" inkscape:window-height="1371" inkscape:window-maximized="1" inkscape:window-width="2560" inkscape:window-x="0" inkscape:window-y="0" inkscape:zoom="6.5078279" pagecolor="#242424" showgrid="false" showguides="true">
    <inkscape:grid id="grid3" color="#0099e5" dotted="false" empcolor="#0099e5" empopacity="0.30196078" empspacing="5" gridanglex="30" gridanglez="30" opacity="0.14902" originx="0" originy="0" spacingx="1" spacingy="1" units="px" visible="false"/>
  </sodipodi:namedview>
  <g id="g1" inkscape:groupmode="layer" inkscape:label="Image">
    <path id="path21" class="st0" d="M1.5,1.5l20.1,34.8,10-17.4,10,17.4,15.1-26.1-5-8.7-5,8.7-5-8.7H1.5Z"/>
    <path id="path13" class="st5" d="M31.6,18.9l10,17.4,10-17.4h-20Z" sodipodi:nodetypes="cccc"/>
    <path id="path16" class="st2" d="M31.6,18.9h7.6c-1.6,2.9-.7,5.1,2.4,5.1s4.1-2.2,2.4-5.1h7.6L41.6,1.5l-10,17.4Z" sodipodi:nodetypes="ccccccc"/>
    <path id="path12" class="st4" d="M41,12.7c1.6-2.7.1-4.6-3.2-4.6l3.8-6.6H1.5l20.1,34.8,13.9-24c1.7,2.9,4.1,3.1,5.6.4" sodipodi:nodetypes="ccccccc"/>
    <path id="path18" class="st3" d="M46.6,10.2l5-8.7,5,8.7h-10Z"/>
    <path id="path17" class="st1" d="M46.6,10.2h10s-5.1,8.7-5.1,8.7l-4.9-8.7"/>
  </g>
</svg>