<svg width="948" height="339" viewBox="0 0 948 339" fill="none" xmlns="http://www.w3.org/2000/svg">
<g clip-path="url(#clip0_22_90)">
<path d="M658.706 243.66C648.289 243.66 639.062 241.375 631.025 236.806C623.137 232.237 617.036 225.84 612.72 217.616C608.404 209.391 606.246 199.796 606.246 188.83C606.246 177.712 608.404 168.04 612.72 159.816C617.184 151.591 623.435 145.271 631.472 140.854C639.508 136.285 648.958 134 659.823 134C670.687 134 679.914 136.132 687.504 140.397C695.094 144.661 700.898 150.83 704.917 158.902C709.084 166.822 711.167 176.417 711.167 187.688C711.167 188.906 711.093 190.201 710.944 191.571C710.944 192.942 710.87 193.932 710.721 194.541H620.533V177.635H690.183L682.816 188.144C683.263 187.231 683.709 186.012 684.156 184.489C684.751 182.814 685.048 181.443 685.048 180.377C685.048 174.742 683.932 169.868 681.7 165.756C679.616 161.643 676.64 158.445 672.77 156.16C669.05 153.876 664.659 152.734 659.599 152.734C653.498 152.734 648.289 154.104 643.973 156.846C639.657 159.587 636.383 163.547 634.15 168.726C631.918 173.904 630.727 180.301 630.579 187.916C630.579 195.531 631.695 202.004 633.927 207.335C636.16 212.513 639.434 216.473 643.75 219.215C648.214 221.956 653.572 223.327 659.823 223.327C666.371 223.327 672.101 221.956 677.012 219.215C681.923 216.473 686.016 212.285 689.29 206.65L710.051 215.331C704.693 224.774 697.773 231.856 689.29 236.577C680.807 241.299 670.612 243.66 658.706 243.66Z" fill="#0D1117"/>
<path d="M738.868 206.878C742.142 210.533 745.416 213.732 748.69 216.473C752.113 219.062 755.536 221.042 758.959 222.413C762.382 223.632 765.805 224.241 769.228 224.241C773.544 224.241 776.893 223.251 779.274 221.271C781.804 219.291 783.069 216.549 783.069 213.046C783.069 210 782.101 207.411 780.167 205.279C778.232 202.994 775.553 201.09 772.13 199.567C768.707 197.892 764.689 196.217 760.075 194.541C755.462 192.714 750.848 190.581 746.235 188.144C741.77 185.555 738.049 182.205 735.073 178.092C732.245 173.98 730.831 168.802 730.831 162.557C730.831 156.16 732.394 150.83 735.519 146.565C738.793 142.301 743.109 139.178 748.467 137.198C753.974 135.066 759.852 134 766.103 134C771.758 134 777.041 134.838 781.953 136.513C787.013 138.188 791.552 140.397 795.57 143.138C799.588 145.88 803.011 149.002 805.839 152.505L792.445 167.126C789.022 163.014 784.929 159.663 780.167 157.074C775.404 154.485 770.493 153.19 765.433 153.19C762.01 153.19 759.182 153.952 756.95 155.475C754.718 156.998 753.602 159.206 753.602 162.1C753.602 164.537 754.569 166.746 756.504 168.726C758.587 170.553 761.266 172.229 764.54 173.752C767.963 175.275 771.758 176.874 775.925 178.549C781.581 180.834 786.789 183.347 791.552 186.088C796.314 188.83 800.109 192.181 802.937 196.14C805.913 200.1 807.402 205.279 807.402 211.676C807.402 221.575 804.053 229.571 797.356 235.664C790.808 241.604 781.878 244.573 770.568 244.573C763.573 244.573 757.099 243.507 751.146 241.375C745.342 239.09 740.207 236.197 735.743 232.694C731.427 229.038 727.78 225.231 724.804 221.271L738.868 206.878Z" fill="#0D1117"/>
<path d="M443 136.285H469.119L493.228 198.882L514.368 137.198H528.982L551.717 199.11L575.826 136.285H601.945L557.188 241.375H545.572L521.803 179.864L499.274 241.375H487.757L443 136.285Z" fill="#0D1117"/>
<path d="M828.794 136H852.904V220.519H896.014V241.375H828.794V136Z" fill="#0D1117"/>
<path d="M267.023 177.174C262.497 177.174 259.668 182.074 261.931 185.994L307.648 265.176C309.916 269.104 315.588 269.094 317.842 265.159L363.19 185.976C365.435 182.056 362.605 177.174 358.088 177.174H344.072C339.963 177.174 337.164 181.312 337.664 185.39C338.2 189.758 337.707 193.896 335.997 197.587C332.209 205.762 323.472 209.707 312.518 209.707C301.564 209.707 292.827 205.762 289.04 197.587C287.329 193.896 286.837 189.758 287.372 185.39C287.873 181.312 285.074 177.174 280.965 177.174H267.023Z" fill="#0391E3"/>
<path d="M298.459 180.526C299.252 178.431 301.341 177.174 303.581 177.174H321.455C323.695 177.174 325.785 178.431 326.578 180.526C328.755 186.277 328.615 190.667 327.28 193.548C325.672 197.019 321.427 200.1 312.518 200.1C303.609 200.1 299.364 197.019 297.756 193.548C296.421 190.667 296.281 186.277 298.459 180.526Z" fill="#0391E3"/>
<path d="M280.466 126.636C279.347 128.576 279.39 131.013 280.807 132.748C284.701 137.514 288.576 139.59 291.74 139.874C295.55 140.217 300.34 138.082 304.795 130.366C309.249 122.651 308.704 117.434 306.502 114.306C304.673 111.708 300.938 109.391 294.863 108.401C292.652 108.042 290.519 109.223 289.399 111.162L280.466 126.636Z" fill="#08BFF2"/>
<path d="M317.84 79.594C315.585 75.6587 309.913 75.649 307.645 79.5767L300.717 91.5771C298.662 95.1355 300.847 99.6282 304.629 101.234C308.679 102.954 312.016 105.449 314.358 108.777C319.544 116.144 318.592 125.683 313.115 135.17C307.638 144.656 299.853 150.25 290.879 149.443C286.827 149.078 282.997 147.436 279.482 144.788C276.2 142.315 271.218 142.67 269.163 146.228L261.936 158.745C259.672 162.665 262.501 167.565 267.028 167.565H297.035C298.744 167.565 300.325 168.474 301.185 169.951C302.046 171.428 302.056 173.251 301.213 174.738C296.311 183.384 296.004 189.765 297.757 193.547C299.365 197.018 303.609 200.099 312.518 200.099C321.428 200.099 325.672 197.018 327.28 193.547C329.033 189.765 328.726 183.384 323.824 174.738C322.98 173.251 322.991 171.428 323.852 169.951C324.712 168.474 326.293 167.565 328.002 167.565H358.087C362.604 167.565 365.434 162.683 363.189 158.763L317.84 79.594Z" fill="#08BFF2"/>
<path d="M189.354 265.237C187.091 269.157 181.433 269.157 179.17 265.237L69.1565 74.6999C66.8932 70.7799 69.7221 65.8799 74.2485 65.8799H294.276C298.802 65.8799 301.631 70.7798 299.368 74.6997L284.362 100.691C283.507 102.171 283.504 103.994 284.353 105.478C285.202 106.962 286.775 107.883 288.485 107.896C298.423 107.973 304.103 110.898 306.502 114.307C308.704 117.435 309.249 122.651 304.795 130.367C300.34 138.082 295.55 140.218 291.74 139.875C287.589 139.501 282.216 136.045 277.179 127.477C276.313 126.003 274.729 125.101 273.02 125.108C271.31 125.114 269.733 126.029 268.879 127.509L189.354 265.237Z" fill="url(#paint0_linear_22_90)"/>
<path d="M69.1565 74.6999L179.17 265.237C181.433 269.157 187.091 269.157 189.354 265.237L199.054 248.437L93.649 65.8799H74.2485C69.7221 65.8799 66.8932 70.7799 69.1565 74.6999Z" fill="#FF7700"/>
<path d="M363.407 111.915C358.881 111.914 356.052 107.014 358.315 103.095L371.952 79.476C374.214 75.5589 379.866 75.5555 382.133 79.4698L395.809 103.09C398.079 107.01 395.25 111.917 390.72 111.917L363.407 111.915Z" fill="#0391E3"/>
<path d="M381.747 154.006C379.454 157.904 373.801 157.862 371.567 153.929L358.147 130.306C355.921 126.386 358.752 121.521 363.26 121.521L390.574 121.523C395.122 121.524 397.948 126.465 395.642 130.385L381.747 154.006Z" fill="#0391E3"/>
</g>
<defs>
<linearGradient id="paint0_linear_22_90" x1="241.842" y1="66.1946" x2="190.093" y2="253.645" gradientUnits="userSpaceOnUse">
<stop stop-color="#FF5343"/>
<stop offset="1" stop-color="#FCB000"/>
</linearGradient>
<clipPath id="clip0_22_90">
<rect width="948" height="317" fill="white" transform="translate(0 13)"/>
</clipPath>
</defs>
</svg>
