<svg width="587" height="585" viewBox="0 0 587 585" fill="none" xmlns="http://www.w3.org/2000/svg">
<g clip-path="url(#clip0_5_333)">
<path d="M296.706 519.14C286.289 519.14 277.062 516.856 269.025 512.286C261.137 507.717 255.036 501.32 250.72 493.096C246.404 484.871 244.246 475.276 244.246 464.31C244.246 453.192 246.404 443.521 250.72 435.296C255.184 427.072 261.435 420.751 269.472 416.334C277.508 411.765 286.958 409.48 297.823 409.48C308.687 409.48 317.914 411.613 325.504 415.877C333.094 420.142 338.898 426.31 342.917 434.382C347.084 442.302 349.167 451.897 349.167 463.168C349.167 464.386 349.093 465.681 348.944 467.052C348.944 468.423 348.87 469.413 348.721 470.022H258.533V453.116H328.183L320.816 463.625C321.263 462.711 321.709 461.493 322.156 459.97C322.751 458.294 323.048 456.924 323.048 455.857C323.048 450.222 321.932 445.348 319.7 441.236C317.616 437.124 314.64 433.925 310.77 431.641C307.05 429.356 302.659 428.214 297.599 428.214C291.498 428.214 286.289 429.585 281.973 432.326C277.657 435.068 274.383 439.028 272.15 444.206C269.918 449.384 268.727 455.781 268.579 463.396C268.579 471.012 269.695 477.485 271.927 482.815C274.16 487.994 277.434 491.954 281.75 494.695C286.214 497.437 291.572 498.807 297.823 498.807C304.371 498.807 310.101 497.437 315.012 494.695C319.923 491.954 324.016 487.765 327.29 482.13L348.051 490.811C342.693 500.254 335.773 507.336 327.29 512.058C318.807 516.779 308.612 519.14 296.706 519.14Z" fill="white"/>
<path d="M376.868 482.358C380.142 486.014 383.416 489.212 386.69 491.954C390.113 494.543 393.536 496.523 396.959 497.894C400.382 499.112 403.805 499.721 407.228 499.721C411.544 499.721 414.893 498.731 417.274 496.751C419.804 494.771 421.069 492.03 421.069 488.527C421.069 485.481 420.101 482.892 418.167 480.759C416.232 478.475 413.553 476.571 410.13 475.048C406.707 473.372 402.689 471.697 398.075 470.022C393.462 468.194 388.848 466.062 384.235 463.625C379.77 461.036 376.049 457.685 373.073 453.573C370.245 449.461 368.831 444.282 368.831 438.038C368.831 431.641 370.394 426.31 373.519 422.046C376.793 417.781 381.109 414.659 386.467 412.679C391.974 410.547 397.852 409.48 404.103 409.48C409.758 409.48 415.041 410.318 419.953 411.994C425.013 413.669 429.552 415.877 433.57 418.619C437.588 421.36 441.011 424.483 443.839 427.986L430.445 442.607C427.022 438.495 422.929 435.144 418.167 432.555C413.404 429.966 408.493 428.671 403.433 428.671C400.01 428.671 397.182 429.432 394.95 430.955C392.718 432.479 391.602 434.687 391.602 437.581C391.602 440.018 392.569 442.226 394.504 444.206C396.587 446.034 399.266 447.709 402.54 449.232C405.963 450.755 409.758 452.354 413.925 454.03C419.581 456.314 424.789 458.827 429.552 461.569C434.314 464.31 438.109 467.661 440.937 471.621C443.913 475.581 445.402 480.759 445.402 487.156C445.402 497.056 442.053 505.052 435.356 511.144C428.808 517.084 419.878 520.054 408.568 520.054C401.573 520.054 395.099 518.988 389.146 516.856C383.342 514.571 378.207 511.677 373.743 508.174C369.427 504.519 365.78 500.711 362.804 496.751L376.868 482.358Z" fill="white"/>
<path d="M81 411.765H107.119L131.228 474.362L152.368 412.679H166.982L189.717 474.591L213.826 411.765H239.945L195.188 516.856H183.572L159.803 455.344L137.274 516.856H125.757L81 411.765Z" fill="white"/>
<path d="M466.794 409.48H490.904V496H534.014V516.856H466.794V409.48Z" fill="white"/>
<path d="M338.149 217.797C332.276 217.797 328.605 224.155 331.542 229.242L390.865 331.991C393.808 337.087 401.169 337.075 404.093 331.968L462.938 229.219C465.851 224.132 462.179 217.797 456.317 217.797H438.129C432.797 217.797 429.166 223.166 429.815 228.459C430.51 234.127 429.871 239.495 427.651 244.286C422.736 254.894 411.399 260.013 397.185 260.013C382.971 260.013 371.633 254.894 366.718 244.286C364.499 239.495 363.86 234.127 364.555 228.459C365.204 223.166 361.572 217.797 356.241 217.797H338.149Z" fill="#0095FF"/>
<path d="M378.941 222.147C379.97 219.428 382.681 217.797 385.588 217.797H408.781C411.688 217.797 414.399 219.428 415.429 222.147C418.254 229.609 418.072 235.306 416.34 239.045C414.253 243.549 408.745 247.546 397.185 247.546C385.624 247.546 380.116 243.549 378.029 239.045C376.297 235.306 376.116 229.609 378.941 222.147Z" fill="#0095FF"/>
<path d="M355.593 152.219C354.14 154.736 354.197 157.899 356.036 160.149C361.089 166.334 366.116 169.028 370.222 169.397C375.166 169.842 381.382 167.071 387.162 157.059C392.943 147.047 392.235 140.278 389.377 136.219C387.004 132.848 382.158 129.841 374.274 128.557C371.406 128.09 368.638 129.623 367.185 132.14L355.593 152.219Z" fill="#05E3FC"/>
<path d="M404.089 91.1763C401.164 86.0698 393.804 86.0572 390.861 91.1538L381.871 106.726C379.205 111.343 382.039 117.173 386.947 119.257C392.203 121.489 396.533 124.727 399.572 129.044C406.301 138.605 405.065 150.982 397.958 163.292C390.851 175.602 380.75 182.861 369.105 181.813C363.847 181.34 358.878 179.209 354.316 175.773C350.058 172.565 343.592 173.025 340.926 177.642L331.548 193.885C328.611 198.971 332.282 205.33 338.155 205.33H377.093C379.311 205.33 381.362 206.509 382.479 208.425C383.595 210.342 383.609 212.708 382.515 214.637C376.154 225.856 375.756 234.136 378.029 239.044C380.116 243.548 385.624 247.545 397.185 247.545C408.745 247.545 414.253 243.548 416.34 239.044C418.614 234.136 418.216 225.856 411.854 214.637C410.76 212.708 410.774 210.342 411.891 208.425C413.007 206.509 415.058 205.33 417.277 205.33H456.315C462.177 205.33 465.849 198.994 462.935 193.907L404.089 91.1763Z" fill="#05E3FC"/>
<path d="M237.364 332.07C234.428 337.156 227.086 337.156 224.149 332.07L81.3937 84.8249C78.4568 79.7383 82.1277 73.3799 88.0013 73.3799H373.513C379.386 73.3799 383.057 79.7381 380.121 84.8247L360.649 118.551C359.54 120.472 359.535 122.838 360.637 124.763C361.738 126.688 363.78 127.883 365.998 127.901C378.895 128.001 386.264 131.797 389.377 136.219C392.235 140.278 392.943 147.047 387.162 157.059C381.382 167.071 375.166 169.842 370.222 169.397C364.836 168.913 357.864 164.428 351.328 153.309C350.204 151.397 348.149 150.226 345.931 150.235C343.712 150.243 341.666 151.43 340.557 153.351L237.364 332.07Z" fill="url(#paint0_linear_5_333)"/>
<path d="M81.3937 84.8249L224.149 332.07C227.086 337.156 234.428 337.156 237.364 332.07L340.557 153.351C341.666 151.43 343.712 150.243 345.931 150.235C348.149 150.226 350.204 151.397 351.328 153.309C357.864 164.428 364.836 168.913 370.222 169.397C375.166 169.842 381.382 167.071 387.162 157.059C392.943 147.047 392.235 140.278 389.377 136.219C386.264 131.797 378.895 128.001 365.998 127.901C363.78 127.883 361.738 126.688 360.637 124.763C359.535 122.838 359.54 120.472 360.649 118.551L380.121 84.8247C383.057 79.7381 379.386 73.3799 373.513 73.3799L273.001 73.38C267.669 73.38 264.038 78.7494 264.687 84.0415C265.382 89.7099 264.743 95.0782 262.523 99.8686C257.608 110.477 246.271 115.596 232.057 115.596C217.843 115.596 206.505 110.477 201.59 99.8686C199.371 95.0782 198.732 89.7099 199.427 84.0415C200.076 78.7494 196.444 73.38 191.113 73.38L88.0013 73.3799C82.1277 73.3799 78.4568 79.7383 81.3937 84.8249Z" fill="url(#paint1_linear_5_333)"/>
<path d="M81.3937 84.8249L224.149 332.07C227.086 337.156 234.428 337.156 237.364 332.07L249.952 310.27L113.176 73.3799H88.0013C82.1277 73.3799 78.4568 79.7383 81.3937 84.8249Z" fill="#FF7700"/>
<path d="M463.219 133.116C457.345 133.115 453.675 126.757 456.611 121.671L474.307 91.0228C477.242 85.94 484.577 85.9355 487.518 91.0148L505.264 121.665C508.21 126.752 504.539 133.119 498.661 133.118L463.219 133.116Z" fill="#04A3FF"/>
<path d="M487.018 187.734C484.042 192.793 476.706 192.738 473.807 187.634L456.394 156.981C453.504 151.894 457.178 145.582 463.028 145.582L498.472 145.585C504.372 145.585 508.039 151.997 505.048 157.083L487.018 187.734Z" fill="#04A3FF"/>
</g>
<defs>
<linearGradient id="paint0_linear_5_333" x1="305.473" y1="73.7883" x2="238.323" y2="317.028" gradientUnits="userSpaceOnUse">
<stop stop-color="#FF5242"/>
<stop offset="1" stop-color="#FFDD00"/>
</linearGradient>
<linearGradient id="paint1_linear_5_333" x1="305.473" y1="73.7883" x2="238.323" y2="317.028" gradientUnits="userSpaceOnUse">
<stop stop-color="#FF5242"/>
<stop offset="1" stop-color="#FFDD00"/>
</linearGradient>
<clipPath id="clip0_5_333">
<rect width="587" height="585" fill="white"/>
</clipPath>
</defs>
</svg>
