<svg width="948" height="339" viewBox="0 0 948 339" fill="none" xmlns="http://www.w3.org/2000/svg">
<g clip-path="url(#clip0_22_89)">
<path d="M658.706 252.66C648.289 252.66 639.062 250.375 631.025 245.806C623.137 241.237 617.036 234.84 612.72 226.616C608.404 218.391 606.246 208.796 606.246 197.83C606.246 186.712 608.404 177.04 612.72 168.816C617.184 160.591 623.435 154.271 631.472 149.854C639.508 145.285 648.958 143 659.823 143C670.687 143 679.914 145.132 687.504 149.397C695.094 153.661 700.898 159.83 704.917 167.902C709.084 175.822 711.167 185.417 711.167 196.688C711.167 197.906 711.093 199.201 710.944 200.571C710.944 201.942 710.87 202.932 710.721 203.541H620.533V186.635H690.183L682.816 197.144C683.263 196.231 683.709 195.012 684.156 193.489C684.751 191.814 685.048 190.443 685.048 189.377C685.048 183.742 683.932 178.868 681.7 174.756C679.616 170.643 676.64 167.445 672.77 165.16C669.05 162.876 664.659 161.734 659.599 161.734C653.498 161.734 648.289 163.104 643.973 165.846C639.657 168.587 636.383 172.547 634.15 177.726C631.918 182.904 630.727 189.301 630.579 196.916C630.579 204.531 631.695 211.004 633.927 216.335C636.16 221.513 639.434 225.473 643.75 228.215C648.214 230.956 653.572 232.327 659.823 232.327C666.371 232.327 672.101 230.956 677.012 228.215C681.923 225.473 686.016 221.285 689.29 215.65L710.051 224.331C704.693 233.774 697.773 240.856 689.29 245.577C680.807 250.299 670.612 252.66 658.706 252.66Z" fill="white"/>
<path d="M738.868 215.878C742.142 219.533 745.416 222.732 748.69 225.473C752.113 228.062 755.536 230.042 758.959 231.413C762.382 232.632 765.805 233.241 769.228 233.241C773.544 233.241 776.893 232.251 779.274 230.271C781.804 228.291 783.069 225.549 783.069 222.046C783.069 219 782.101 216.411 780.167 214.279C778.232 211.994 775.553 210.09 772.13 208.567C768.707 206.892 764.689 205.217 760.075 203.541C755.462 201.714 750.848 199.581 746.235 197.144C741.77 194.555 738.049 191.205 735.073 187.092C732.245 182.98 730.831 177.802 730.831 171.557C730.831 165.16 732.394 159.83 735.519 155.565C738.793 151.301 743.109 148.178 748.467 146.198C753.974 144.066 759.852 143 766.103 143C771.758 143 777.041 143.838 781.953 145.513C787.013 147.188 791.552 149.397 795.57 152.138C799.588 154.88 803.011 158.002 805.839 161.505L792.445 176.126C789.022 172.014 784.929 168.663 780.167 166.074C775.404 163.485 770.493 162.19 765.433 162.19C762.01 162.19 759.182 162.952 756.95 164.475C754.718 165.998 753.602 168.206 753.602 171.1C753.602 173.537 754.569 175.746 756.504 177.726C758.587 179.553 761.266 181.229 764.54 182.752C767.963 184.275 771.758 185.874 775.925 187.549C781.581 189.834 786.789 192.347 791.552 195.088C796.314 197.83 800.109 201.181 802.937 205.14C805.913 209.1 807.402 214.279 807.402 220.676C807.402 230.575 804.053 238.571 797.356 244.664C790.808 250.604 781.878 253.573 770.568 253.573C763.573 253.573 757.099 252.507 751.146 250.375C745.342 248.09 740.207 245.197 735.743 241.694C731.427 238.038 727.78 234.231 724.804 230.271L738.868 215.878Z" fill="white"/>
<path d="M443 145.285H469.119L493.228 207.882L514.368 146.198H528.982L551.717 208.11L575.826 145.285H601.945L557.188 250.375H545.572L521.803 188.864L499.274 250.375H487.757L443 145.285Z" fill="white"/>
<path d="M828.794 145H852.904V229.519H896.014V250.375H828.794V145Z" fill="white"/>
<path d="M267.023 186.174C262.497 186.174 259.668 191.074 261.931 194.994L307.648 274.176C309.916 278.104 315.588 278.094 317.842 274.159L363.19 194.976C365.435 191.056 362.605 186.174 358.088 186.174H344.072C339.963 186.174 337.164 190.312 337.664 194.39C338.2 198.758 337.707 202.896 335.997 206.587C332.209 214.762 323.472 218.707 312.518 218.707C301.564 218.707 292.827 214.762 289.04 206.587C287.329 202.896 286.837 198.758 287.372 194.39C287.873 190.312 285.074 186.174 280.965 186.174H267.023Z" fill="#0095FF"/>
<path d="M298.459 189.526C299.252 187.431 301.341 186.174 303.581 186.174H321.455C323.695 186.174 325.785 187.431 326.578 189.526C328.755 195.277 328.615 199.667 327.28 202.548C325.672 206.019 321.427 209.1 312.518 209.1C303.609 209.1 299.364 206.019 297.756 202.548C296.421 199.667 296.281 195.277 298.459 189.526Z" fill="#0095FF"/>
<path d="M280.466 135.637C279.347 137.576 279.39 140.014 280.807 141.748C284.701 146.514 288.576 148.59 291.74 148.875C295.55 149.218 300.34 147.082 304.795 139.367C309.249 131.651 308.704 126.435 306.502 123.307C304.673 120.708 300.938 118.391 294.863 117.402C292.652 117.042 290.519 118.223 289.399 120.163L280.466 135.637Z" fill="#05E3FC"/>
<path d="M317.84 88.5945C315.585 84.6592 309.913 84.6495 307.645 88.5772L300.717 100.578C298.662 104.136 300.847 108.629 304.629 110.235C308.679 111.955 312.016 114.45 314.358 117.777C319.544 125.145 318.592 134.684 313.115 144.17C307.638 153.657 299.853 159.251 290.879 158.443C286.827 158.079 282.997 156.437 279.482 153.788C276.2 151.316 271.218 151.671 269.163 155.229L261.936 167.746C259.672 171.666 262.501 176.566 267.028 176.566H297.035C298.744 176.566 300.325 177.474 301.185 178.951C302.046 180.429 302.056 182.252 301.213 183.739C296.311 192.385 296.004 198.766 297.757 202.547C299.365 206.018 303.609 209.099 312.518 209.099C321.428 209.099 325.672 206.018 327.28 202.547C329.033 198.766 328.726 192.385 323.824 183.739C322.98 182.252 322.991 180.429 323.852 178.951C324.712 177.474 326.293 176.566 328.002 176.566H358.087C362.604 176.566 365.434 171.683 363.189 167.763L317.84 88.5945Z" fill="#05E3FC"/>
<path d="M189.354 274.237C187.091 278.157 181.433 278.157 179.17 274.237L69.1565 83.6999C66.8932 79.7799 69.7221 74.8799 74.2485 74.8799H294.276C298.802 74.8799 301.631 79.7798 299.368 83.6997L284.362 109.691C283.507 111.171 283.504 112.994 284.353 114.478C285.202 115.962 286.775 116.883 288.485 116.896C298.423 116.973 304.103 119.898 306.502 123.307C308.704 126.435 309.249 131.651 304.795 139.367C300.34 147.082 295.55 149.218 291.74 148.875C287.589 148.501 282.216 145.045 277.179 136.477C276.313 135.003 274.729 134.101 273.02 134.108C271.31 134.114 269.733 135.029 268.879 136.509L189.354 274.237Z" fill="url(#paint0_linear_22_89)"/>
<path d="M69.1565 83.6999L179.17 274.237C181.433 278.157 187.091 278.157 189.354 274.237L268.879 136.509C269.733 135.029 271.31 134.114 273.02 134.108C274.729 134.101 276.313 135.003 277.179 136.477C282.216 145.045 287.589 148.501 291.74 148.875C295.55 149.218 300.34 147.082 304.795 139.367C309.249 131.651 308.704 126.435 306.502 123.307C304.103 119.898 298.423 116.973 288.485 116.896C286.775 116.883 285.202 115.962 284.353 114.478C283.504 112.994 283.507 111.171 284.362 109.691L299.368 83.6997C301.631 79.7798 298.802 74.8799 294.276 74.8799L216.817 74.88C212.708 74.88 209.91 79.0179 210.41 83.0962C210.945 87.4645 210.453 91.6016 208.742 95.2932C204.955 103.468 196.218 107.413 185.264 107.413C174.31 107.413 165.573 103.468 161.785 95.2932C160.075 91.6016 159.582 87.4645 160.118 83.0962C160.618 79.0179 157.819 74.88 153.711 74.88L74.2485 74.8799C69.7221 74.8799 66.8932 79.7799 69.1565 83.6999Z" fill="url(#paint1_linear_22_89)"/>
<path d="M69.1565 83.6999L179.17 274.237C181.433 278.157 187.091 278.157 189.354 274.237L199.054 257.437L93.649 74.8799H74.2485C69.7221 74.8799 66.8932 79.7799 69.1565 83.6999Z" fill="#FF7700"/>
<path d="M363.407 120.915C358.881 120.915 356.052 116.015 358.315 112.095L371.952 88.4765C374.214 84.5594 379.866 84.556 382.133 88.4703L395.809 112.091C398.079 116.011 395.25 120.917 390.72 120.917L363.407 120.915Z" fill="#04A3FF"/>
<path d="M381.747 163.006C379.454 166.904 373.801 166.862 371.567 162.929L358.147 139.306C355.921 135.386 358.752 130.521 363.26 130.521L390.574 130.523C395.122 130.524 397.948 135.465 395.642 139.385L381.747 163.006Z" fill="#04A3FF"/>
</g>
<defs>
<linearGradient id="paint0_linear_22_89" x1="241.842" y1="75.1946" x2="190.093" y2="262.645" gradientUnits="userSpaceOnUse">
<stop stop-color="#FF5242"/>
<stop offset="1" stop-color="#FFDD00"/>
</linearGradient>
<linearGradient id="paint1_linear_22_89" x1="241.842" y1="75.1946" x2="190.093" y2="262.645" gradientUnits="userSpaceOnUse">
<stop stop-color="#FF5242"/>
<stop offset="1" stop-color="#FFDD00"/>
</linearGradient>
<clipPath id="clip0_22_89">
<rect width="948" height="317" fill="white" transform="translate(0 22)"/>
</clipPath>
</defs>
</svg>
