<svg width="600" height="600" viewBox="0 0 600 600" fill="none" xmlns="http://www.w3.org/2000/svg">
<path d="M340.504 314.492C335.115 314.492 331.748 320.326 334.442 324.992L388.867 419.257C391.567 423.933 398.32 423.921 401.003 419.236L454.989 324.971C457.662 320.304 454.292 314.492 448.915 314.492H432.228C427.337 314.492 424.005 319.418 424.6 324.274C425.238 329.474 424.652 334.399 422.616 338.794C418.106 348.526 407.705 353.222 394.665 353.222C381.624 353.222 371.223 348.526 366.714 338.794C364.678 334.399 364.092 329.474 364.729 324.274C365.325 319.418 361.993 314.492 357.101 314.492H340.504Z" fill="#0095FF"/>
<path d="M377.927 318.483C378.872 315.989 381.359 314.492 384.026 314.492H405.304C407.971 314.492 410.458 315.989 411.402 318.483C413.994 325.329 413.828 330.556 412.239 333.986C410.324 338.118 405.271 341.785 394.665 341.785C384.059 341.785 379.006 338.118 377.091 333.986C375.502 330.556 375.335 325.329 377.927 318.483Z" fill="#0095FF"/>
<path d="M356.508 254.33C355.175 256.639 355.227 259.541 356.914 261.605C361.549 267.279 366.161 269.751 369.929 270.09C374.464 270.498 380.167 267.955 385.47 258.77C390.773 249.585 390.123 243.375 387.502 239.651C385.325 236.558 380.878 233.799 373.646 232.622C371.014 232.193 368.475 233.599 367.142 235.909L356.508 254.33Z" fill="#05E3FC"/>
<path d="M400.999 198.327C398.316 193.642 391.563 193.631 388.863 198.307L380.615 212.593C378.17 216.829 380.77 222.177 385.272 224.089C390.095 226.137 394.067 229.108 396.855 233.068C403.028 241.84 401.895 253.195 395.375 264.489C388.854 275.782 379.587 282.442 368.904 281.48C364.08 281.046 359.521 279.092 355.336 275.939C351.429 272.996 345.497 273.418 343.051 277.654L334.447 292.555C331.753 297.222 335.121 303.055 340.509 303.055H376.232C378.267 303.055 380.149 304.137 381.173 305.895C382.197 307.653 382.21 309.824 381.206 311.594C375.37 321.887 375.005 329.483 377.091 333.985C379.006 338.117 384.059 341.785 394.665 341.785C405.271 341.785 410.324 338.117 412.239 333.985C414.324 329.483 413.959 321.887 408.123 311.594C407.12 309.824 407.132 307.653 408.157 305.895C409.181 304.137 411.063 303.055 413.098 303.055H448.913C454.291 303.055 457.66 297.243 454.987 292.576L400.999 198.327Z" fill="#05E3FC"/>
<path d="M248.041 419.33C245.346 423.997 238.611 423.997 235.917 419.33L104.948 192.5C102.254 187.833 105.622 182 111.01 182H372.948C378.336 182 381.704 187.833 379.01 192.5L361.146 223.442C360.128 225.204 360.124 227.374 361.134 229.141C362.145 230.907 364.018 232.003 366.053 232.019C377.885 232.111 384.646 235.593 387.502 239.651C390.123 243.375 390.773 249.585 385.47 258.77C380.167 267.955 374.464 270.497 369.929 270.089C364.987 269.645 358.591 265.53 352.595 255.33C351.564 253.575 349.678 252.501 347.643 252.509C345.608 252.517 343.73 253.606 342.713 255.368L248.041 419.33Z" fill="url(#paint0_linear_9_57)"/>
<path d="M104.948 192.5L235.917 419.33C238.611 423.997 245.346 423.997 248.041 419.33L342.713 255.368C343.73 253.606 345.608 252.517 347.643 252.509C349.678 252.501 351.564 253.575 352.595 255.33C358.591 265.53 364.987 269.645 369.929 270.089C374.464 270.497 380.167 267.955 385.47 258.77C390.773 249.585 390.123 243.375 387.502 239.651C384.646 235.593 377.885 232.111 366.053 232.019C364.018 232.003 362.145 230.907 361.134 229.141C360.124 227.374 360.128 225.204 361.146 223.442L379.01 192.5C381.704 187.833 378.336 182 372.948 182L280.735 182C275.843 182 272.512 186.926 273.107 191.781C273.745 196.982 273.158 201.907 271.122 206.302C266.613 216.034 256.212 220.73 243.171 220.73C230.131 220.73 219.73 216.034 215.221 206.302C213.184 201.907 212.598 196.982 213.236 191.781C213.831 186.926 210.499 182 205.608 182L111.01 182C105.622 182 102.254 187.833 104.948 192.5Z" fill="url(#paint1_linear_9_57)"/>
<path d="M104.948 192.5L235.917 419.33C238.611 423.997 245.346 423.997 248.041 419.33L259.589 399.33L134.106 182H111.01C105.622 182 102.254 187.833 104.948 192.5Z" fill="#FF7700"/>
<path d="M455.246 236.804C449.858 236.803 446.491 230.97 449.185 226.304L465.419 198.186C468.112 193.523 474.841 193.519 477.539 198.179L493.82 226.299C496.523 230.965 493.155 236.806 487.762 236.806L455.246 236.804Z" fill="#04A3FF"/>
<path d="M477.081 286.912C474.35 291.553 467.621 291.502 464.961 286.82L448.985 258.698C446.334 254.031 449.705 248.24 455.072 248.24L487.589 248.243C493.002 248.243 496.366 254.125 493.622 258.792L477.081 286.912Z" fill="#04A3FF"/>
<defs>
<linearGradient id="paint0_linear_9_57" x1="310.526" y1="182.375" x2="248.921" y2="405.53" gradientUnits="userSpaceOnUse">
<stop stop-color="#FF5242"/>
<stop offset="1" stop-color="#FFDD00"/>
</linearGradient>
<linearGradient id="paint1_linear_9_57" x1="310.526" y1="182.375" x2="248.921" y2="405.53" gradientUnits="userSpaceOnUse">
<stop stop-color="#FF5242"/>
<stop offset="1" stop-color="#FFDD00"/>
</linearGradient>
</defs>
</svg>
