<svg width="587" height="585" viewBox="0 0 587 585" fill="none" xmlns="http://www.w3.org/2000/svg">
<g clip-path="url(#clip0_5_304)">
<path d="M325.93 219.149C319.553 219.149 315.568 226.051 318.756 231.573L383.159 343.12C386.354 348.654 394.345 348.64 397.52 343.095L461.404 231.548C464.566 226.026 460.579 219.149 454.216 219.149H434.47C428.682 219.149 424.739 224.978 425.444 230.723C426.199 236.877 425.505 242.705 423.095 247.905C417.759 259.422 405.451 264.979 390.02 264.979C374.589 264.979 362.281 259.422 356.945 247.905C354.536 242.705 353.842 236.877 354.596 230.723C355.301 224.978 351.358 219.149 345.57 219.149H325.93Z" fill="#0391E3"/>
<path d="M370.214 223.871C371.331 220.919 374.275 219.148 377.431 219.148H402.61C405.765 219.148 408.709 220.919 409.826 223.871C412.893 231.972 412.696 238.157 410.816 242.216C408.55 247.105 402.571 251.445 390.02 251.445C377.47 251.445 371.49 247.105 369.225 242.216C367.344 238.157 367.147 231.972 370.214 223.871Z" fill="#0391E3"/>
<path d="M344.867 147.956C343.29 150.689 343.352 154.122 345.348 156.566C350.833 163.28 356.291 166.204 360.749 166.605C366.116 167.088 372.864 164.08 379.139 153.211C385.415 142.342 384.646 134.993 381.544 130.587C378.968 126.926 373.706 123.662 365.148 122.268C362.034 121.761 359.029 123.425 357.452 126.158L344.867 147.956Z" fill="#08BFF2"/>
<path d="M397.516 81.6866C394.34 76.1427 386.35 76.1291 383.155 81.6621L373.395 98.5675C370.501 103.58 373.578 109.909 378.905 112.172C384.612 114.595 389.312 118.11 392.611 122.797C399.917 133.176 398.576 146.614 390.86 159.978C383.144 173.341 372.178 181.222 359.536 180.085C353.827 179.571 348.433 177.258 343.481 173.527C338.858 170.044 331.838 170.544 328.944 175.556L318.763 193.189C315.574 198.712 319.56 205.615 325.936 205.615H368.208C370.616 205.615 372.843 206.894 374.055 208.975C375.267 211.056 375.282 213.624 374.094 215.719C367.188 227.899 366.756 236.888 369.225 242.215C371.49 247.105 377.47 251.445 390.02 251.445C402.571 251.445 408.55 247.105 410.816 242.215C413.284 236.888 412.852 227.899 405.946 215.719C404.758 213.624 404.773 211.056 405.985 208.975C407.198 206.894 409.424 205.615 411.832 205.615H454.213C460.577 205.615 464.564 198.736 461.401 193.214L397.516 81.6866Z" fill="#08BFF2"/>
<path d="M216.515 343.207C213.327 348.729 205.356 348.729 202.168 343.207L47.1889 74.7912C44.0005 69.2691 47.9857 62.3662 54.3622 62.3662H364.321C370.698 62.3662 374.683 69.2689 371.495 74.791L350.356 111.405C349.152 113.491 349.146 116.059 350.342 118.149C351.538 120.239 353.755 121.537 356.163 121.555C370.164 121.665 378.165 125.785 381.544 130.586C384.646 134.993 385.415 142.341 379.14 153.211C372.864 164.08 366.116 167.088 360.749 166.605C354.901 166.079 347.332 161.211 340.237 149.14C339.017 147.064 336.785 145.793 334.377 145.802C331.969 145.811 329.747 147.1 328.543 149.185L216.515 343.207Z" fill="url(#paint0_linear_5_304)"/>
<path d="M47.1889 74.7912L202.168 343.207C205.356 348.729 213.327 348.729 216.515 343.207L230.18 319.54L81.6922 62.3662H54.3622C47.9857 62.3662 44.0005 69.2691 47.1889 74.7912Z" fill="#FF7700"/>
<path d="M461.708 127.217C455.332 127.217 451.347 120.314 454.535 114.793L473.746 81.5203C476.932 76.0023 484.895 75.9975 488.088 81.5116L507.354 114.787C510.552 120.309 506.567 127.221 500.185 127.22L461.708 127.217Z" fill="#0391E3"/>
<path d="M487.545 186.512C484.314 192.005 476.351 191.945 473.203 186.404L454.299 153.126C451.162 147.603 455.151 140.751 461.502 140.751L499.98 140.754C506.386 140.754 510.367 147.715 507.119 153.237L487.545 186.512Z" fill="#0391E3"/>
<path d="M296.706 507.14C286.289 507.14 277.062 504.856 269.025 500.286C261.137 495.717 255.036 489.32 250.72 481.096C246.404 472.871 244.246 463.276 244.246 452.31C244.246 441.192 246.404 431.521 250.72 423.296C255.184 415.072 261.435 408.751 269.472 404.334C277.508 399.765 286.958 397.48 297.823 397.48C308.687 397.48 317.914 399.613 325.504 403.877C333.094 408.142 338.898 414.31 342.917 422.382C347.084 430.302 349.167 439.897 349.167 451.168C349.167 452.386 349.093 453.681 348.944 455.052C348.944 456.423 348.87 457.413 348.721 458.022H258.533V441.116H328.183L320.816 451.625C321.263 450.711 321.709 449.493 322.156 447.97C322.751 446.294 323.048 444.924 323.048 443.857C323.048 438.222 321.932 433.348 319.7 429.236C317.616 425.124 314.64 421.925 310.77 419.641C307.05 417.356 302.659 416.214 297.599 416.214C291.498 416.214 286.289 417.585 281.973 420.326C277.657 423.068 274.383 427.028 272.15 432.206C269.918 437.384 268.727 443.781 268.579 451.396C268.579 459.012 269.695 465.485 271.927 470.815C274.16 475.994 277.434 479.954 281.75 482.695C286.214 485.437 291.572 486.807 297.823 486.807C304.371 486.807 310.101 485.437 315.012 482.695C319.923 479.954 324.016 475.765 327.29 470.13L348.051 478.811C342.693 488.254 335.773 495.336 327.29 500.058C318.807 504.779 308.612 507.14 296.706 507.14Z" fill="#0D1117"/>
<path d="M376.868 470.358C380.142 474.014 383.416 477.212 386.69 479.954C390.113 482.543 393.536 484.523 396.959 485.894C400.382 487.112 403.805 487.721 407.228 487.721C411.544 487.721 414.893 486.731 417.274 484.751C419.804 482.771 421.069 480.03 421.069 476.527C421.069 473.481 420.101 470.892 418.167 468.759C416.232 466.475 413.553 464.571 410.13 463.048C406.707 461.372 402.689 459.697 398.075 458.022C393.462 456.194 388.848 454.062 384.235 451.625C379.77 449.036 376.049 445.685 373.073 441.573C370.245 437.461 368.831 432.282 368.831 426.038C368.831 419.641 370.394 414.31 373.519 410.046C376.793 405.781 381.109 402.659 386.467 400.679C391.974 398.547 397.852 397.48 404.103 397.48C409.758 397.48 415.041 398.318 419.953 399.994C425.013 401.669 429.552 403.877 433.57 406.619C437.588 409.36 441.011 412.483 443.839 415.986L430.445 430.607C427.022 426.495 422.929 423.144 418.167 420.555C413.404 417.966 408.493 416.671 403.433 416.671C400.01 416.671 397.182 417.432 394.95 418.955C392.718 420.479 391.602 422.687 391.602 425.581C391.602 428.018 392.569 430.226 394.504 432.206C396.587 434.034 399.266 435.709 402.54 437.232C405.963 438.755 409.758 440.354 413.925 442.03C419.581 444.314 424.789 446.827 429.552 449.569C434.314 452.31 438.109 455.661 440.937 459.621C443.913 463.581 445.402 468.759 445.402 475.156C445.402 485.056 442.053 493.052 435.356 499.144C428.808 505.084 419.878 508.054 408.568 508.054C401.573 508.054 395.099 506.988 389.146 504.856C383.342 502.571 378.207 499.677 373.743 496.174C369.427 492.519 365.78 488.711 362.804 484.751L376.868 470.358Z" fill="#0D1117"/>
<path d="M81 399.765H107.119L131.228 462.362L152.368 400.679H166.982L189.717 462.591L213.826 399.765H239.945L195.188 504.856H183.572L159.803 443.344L137.274 504.856H125.757L81 399.765Z" fill="#0D1117"/>
<path d="M466.794 397.48H490.904V484H534.014V504.856H466.794V397.48Z" fill="#0D1117"/>
</g>
<defs>
<linearGradient id="paint0_linear_5_304" x1="290.456" y1="62.8096" x2="217.556" y2="326.877" gradientUnits="userSpaceOnUse">
<stop stop-color="#FF5343"/>
<stop offset="1" stop-color="#FCB000"/>
</linearGradient>
<clipPath id="clip0_5_304">
<rect width="587" height="585" fill="white"/>
</clipPath>
</defs>
</svg>
